<?xml version="1.0" encoding="utf-8"?>
<!-- Generator: Adobe Illustrator 24.2.3, SVG Export Plug-In . SVG Version: 6.00 Build 0)  -->
<svg version="1.1" id="light" xmlns="http://www.w3.org/2000/svg" xmlns:xlink="http://www.w3.org/1999/xlink" x="0px" y="0px"
	 viewBox="0 0 512 512" style="enable-background:new 0 0 512 512;" xml:space="preserve">
<style type="text/css">
	.st0{fill:#FFFFFF;stroke:#FFFFFF;stroke-miterlimit:10;}
	.st1{fill:#FFFFFF;stroke:#FFFFFF;stroke-width:6;stroke-miterlimit:10;}
</style>
<g>
	<path class="st0" d="M256,506.6C117.8,506.6,5.4,394.2,5.4,256S117.8,5.4,256,5.4S506.6,117.8,506.6,256S394.2,506.6,256,506.6z
		 M256,26.3c-126.6,0-229.7,103-229.7,229.7s103,229.7,229.7,229.7s229.7-103,229.7-229.7S382.6,26.3,256,26.3z"/>
</g>
<g>
	<path class="st1" d="M369.6,172.4H144.4c-6.9,0-12.5-4.7-12.5-10.6s5.6-10.6,12.5-10.6h225.2c6.9,0,12.5,4.7,12.5,10.6
		S376.5,172.4,369.6,172.4z"/>
</g>
<g>
	<path class="st1" d="M369.6,267.5H144.4c-6.9,0-12.5-4.7-12.5-10.6c0-5.8,5.6-10.6,12.5-10.6h225.2c6.9,0,12.5,4.7,12.5,10.6
		C382.1,262.8,376.5,267.5,369.6,267.5z"/>
</g>
<g>
	<path class="st1" d="M369.6,362.7H144.4c-6.9,0-12.5-4.7-12.5-10.6s5.6-10.6,12.5-10.6h225.2c6.9,0,12.5,4.7,12.5,10.6
		S376.5,362.7,369.6,362.7z"/>
</g>
</svg>
