<?xml version="1.0" encoding="utf-8"?>
<!-- Generator: Adobe Illustrator 24.2.3, SVG Export Plug-In . SVG Version: 6.00 Build 0)  -->
<svg version="1.1" id="Layer_1" xmlns="http://www.w3.org/2000/svg" xmlns:xlink="http://www.w3.org/1999/xlink" x="0px" y="0px"
	 viewBox="0 0 300 90" style="enable-background:new 0 0 300 90;" xml:space="preserve">
<style type="text/css">
	.st0{fill:#6AB362;}
	.st1{fill:#FFFFFF;}
	.st2{fill:#FFFFFF;stroke:#FFFFFF;stroke-width:0.5;stroke-miterlimit:10;}
</style>
<g>
	<polygon class="st0" points="292.3,28 246.6,3 200.8,28 205.9,28 205.9,58.5 286.6,58.5 286.6,28 	"/>
	<g>
		<path class="st1" d="M213.8,30.8v24h-1.4v-24H213.8z"/>
		<path class="st1" d="M225.8,38.7c2.3,0,4.2,0.8,5.8,2.4c1.6,1.6,2.4,3.6,2.4,5.8c0,2.3-0.8,4.2-2.4,5.8c-1.6,1.6-3.5,2.4-5.8,2.4
			c-2.3,0-4.2-0.8-5.8-2.4c-1.6-1.6-2.4-3.5-2.4-5.8c0-2.3,0.8-4.2,2.4-5.8C221.6,39.5,223.6,38.7,225.8,38.7z M221,42.1
			c-1.3,1.3-2,2.9-2,4.8c0,1.9,0.7,3.5,2,4.8c1.3,1.3,2.9,2,4.8,2c1.9,0,3.5-0.7,4.8-2c1.3-1.3,2-2.9,2-4.8c0-1.9-0.7-3.5-2-4.8
			c-1.3-1.3-2.9-2-4.8-2C224,40.1,222.4,40.8,221,42.1z"/>
		<path class="st1" d="M253.6,54.8h-1.4v-3c-0.3,0.4-0.5,0.7-0.8,1c-1.6,1.6-3.6,2.4-5.8,2.4c-2.3,0-4.2-0.8-5.8-2.4
			c-1.6-1.6-2.4-3.5-2.4-5.8c0-2.3,0.8-4.2,2.4-5.8c1.6-1.6,3.5-2.4,5.8-2.4c2.3,0,4.2,0.8,5.8,2.4c0.3,0.3,0.6,0.7,0.8,1V40h1.4
			V54.8z M252.2,48.3v-2.7c-0.2-1.3-0.9-2.5-1.9-3.5c-1.3-1.3-2.9-2-4.8-2c-1.9,0-3.5,0.7-4.8,2c-1.3,1.3-2,2.9-2,4.8
			c0,1.9,0.7,3.5,2,4.8c1.3,1.3,2.9,2,4.8,2c1.9,0,3.5-0.7,4.8-2C251.3,50.7,251.9,49.6,252.2,48.3z"/>
		<path class="st1" d="M258.8,43.3v11.4h-1.4V40h1.4v1c1.2-1.2,2.6-1.8,4.3-1.8c1.7,0,3.2,0.5,4.3,1.6c1.1,1.1,1.6,2.5,1.7,4.1v9.9
			h-1.3V45c0-1.3-0.5-2.3-1.4-3.2c-0.9-0.9-2-1.3-3.2-1.3c-1.2,0-2.3,0.4-3.2,1.3C259.4,42.3,259.1,42.8,258.8,43.3z"/>
		<path class="st1" d="M276.9,46.8c-1.1-0.6-1.9-1.2-2.4-1.6c-0.7-0.7-1-1.5-1-2.5c0-1,0.3-1.8,1-2.5c0.7-0.7,1.5-1,2.5-1
			c1,0,1.8,0.3,2.4,1c0.6,0.6,0.9,1.3,0.9,2.1v0.1l-1.2,0.5c-0.1-0.8-0.3-1.3-0.7-1.7c-0.4-0.4-0.9-0.6-1.5-0.6
			c-0.6,0-1.1,0.2-1.5,0.6c-0.4,0.4-0.6,0.9-0.6,1.5c0,0.6,0.2,1.1,0.6,1.5c0.2,0.3,0.8,0.6,1.6,1.2c1.3,0.7,2.2,1.3,2.7,1.8
			c0.8,0.9,1.3,1.9,1.3,3.1c0,1.2-0.4,2.3-1.3,3.1c-0.8,0.9-1.9,1.3-3.1,1.3c-1.2,0-2.2-0.4-3.1-1.3c-0.8-0.9-1.3-1.8-1.3-2.8
			l1.3-0.3c0,0.9,0.3,1.6,0.9,2.2c0.6,0.6,1.3,0.9,2.1,0.9c0.8,0,1.5-0.3,2.1-0.9c0.6-0.6,0.9-1.3,0.9-2.2c0-0.8-0.3-1.5-0.9-2.1
			C278.6,47.9,277.9,47.5,276.9,46.8z"/>
	</g>
	<g>
		<path class="st1" d="M10.1,43.3v11.4H8.7V40h1.4v1c1.2-1.2,2.6-1.8,4.3-1.8c1.7,0,3.2,0.5,4.3,1.6c1.1,1.1,1.6,2.5,1.7,4.1v9.9
			h-1.3V45c0-1.3-0.5-2.3-1.4-3.2c-0.9-0.9-2-1.3-3.2-1.3c-1.2,0-2.3,0.4-3.2,1.3C10.6,42.3,10.3,42.8,10.1,43.3z"/>
		<path class="st1" d="M25,46.2c0,0.2-0.1,0.5-0.1,0.8c0,1.9,0.7,3.5,2,4.8c1.3,1.3,2.9,2,4.8,2c1.9,0,3.5-0.7,4.8-2
			c0.2-0.2,0.4-0.5,0.6-0.7l1.4,0.5c-0.2,0.3-0.5,0.7-1.1,1.2c-1.6,1.6-3.6,2.4-5.8,2.4c-2.3,0-4.2-0.8-5.8-2.4
			c-1.6-1.6-2.4-3.5-2.4-5.8c0-2.3,0.8-4.2,2.4-5.8c1.6-1.6,3.5-2.4,5.8-2.4c2.3,0,4.2,0.8,5.8,2.4c1.4,1.4,2.1,3.1,2.1,5.1H25z
			 M25.3,44.8h12.9c-0.3-1-0.9-1.9-1.6-2.7c-1.3-1.3-2.9-2-4.8-2c-1.9,0-3.5,0.7-4.8,2C26.2,42.9,25.6,43.8,25.3,44.8z"/>
		<path class="st1" d="M44.7,35.2c0.3,0.3,0.4,0.6,0.4,0.9c0,0.4-0.1,0.7-0.4,1c-0.3,0.3-0.6,0.4-0.9,0.4c-0.4,0-0.7-0.1-1-0.4
			c-0.3-0.3-0.4-0.6-0.4-1c0-0.4,0.1-0.7,0.4-0.9c0.3-0.3,0.6-0.4,1-0.4C44.1,34.8,44.5,34.9,44.7,35.2z M44.4,40v14.7h-1.3V40H44.4
			z"/>
		<path class="st1" d="M63,51.8c-0.3,0.3-0.5,0.6-0.8,0.9c-1.6,1.6-3.6,2.4-5.8,2.4c-2.3,0-4.2-0.8-5.8-2.4
			c-1.6-1.6-2.4-3.5-2.4-5.8c0-2.3,0.8-4.2,2.4-5.8c1.6-1.6,3.5-2.4,5.8-2.4c2.3,0,4.2,0.8,5.8,2.4c0.3,0.3,0.6,0.7,0.8,1V40h1.4
			v11.4c0,2.2-0.8,4.1-2.4,5.7c-1.6,1.6-3.5,2.4-5.8,2.4c-2.3,0-4.2-0.8-5.8-2.4c-0.3-0.3-0.6-0.7-0.9-1l1.4-0.5
			c0.1,0.2,0.3,0.4,0.5,0.5c1.3,1.3,2.9,2,4.8,2c1.9,0,3.5-0.7,4.8-2C62.2,54.9,62.8,53.5,63,51.8z M63,45.5
			c-0.3-1.3-0.9-2.4-1.8-3.4c-1.3-1.3-2.9-2-4.8-2c-1.9,0-3.5,0.7-4.8,2c-1.3,1.3-2,2.9-2,4.8c0,1.9,0.7,3.5,2,4.8
			c1.3,1.3,2.9,2,4.8,2c1.9,0,3.5-0.7,4.8-2c1-1,1.6-2.1,1.8-3.4V45.5z"/>
		<path class="st1" d="M67.9,30.8h1.4v10c1.1-1.1,2.5-1.6,4.1-1.6c1.7,0,3.1,0.5,4.2,1.6c1.1,1.1,1.7,2.5,1.7,4.1v9.9h-1.4V45
			c0-1.3-0.5-2.3-1.4-3.2c-0.9-0.9-2-1.3-3.2-1.3c-1.2,0-2.3,0.4-3.2,1.3c-0.4,0.4-0.7,0.8-0.9,1.2v11.7h-1.4V30.8z"/>
		<path class="st1" d="M83.3,30.8h1.4v11.3c0.2-0.3,0.5-0.7,0.8-1c1.6-1.6,3.5-2.4,5.8-2.4c2.3,0,4.2,0.8,5.8,2.4
			c1.6,1.6,2.4,3.6,2.4,5.8c0,2.3-0.8,4.2-2.4,5.8c-1.6,1.6-3.5,2.4-5.8,2.4c-2.3,0-4.2-0.8-5.8-2.4c-0.3-0.3-0.6-0.6-0.8-1v3h-1.4
			V30.8z M84.6,45.5v2.8c0.2,1.3,0.9,2.4,1.8,3.4c1.3,1.3,2.9,2,4.8,2c1.9,0,3.5-0.7,4.8-2c1.3-1.3,2-2.9,2-4.8c0-1.9-0.7-3.5-2-4.8
			c-1.3-1.3-2.9-2-4.8-2c-1.9,0-3.5,0.7-4.8,2C85.5,43.1,84.9,44.2,84.6,45.5z"/>
		<path class="st1" d="M111,38.7c2.3,0,4.2,0.8,5.8,2.4c1.6,1.6,2.4,3.6,2.4,5.8c0,2.3-0.8,4.2-2.4,5.8c-1.6,1.6-3.5,2.4-5.8,2.4
			c-2.3,0-4.2-0.8-5.8-2.4c-1.6-1.6-2.4-3.5-2.4-5.8c0-2.3,0.8-4.2,2.4-5.8C106.8,39.5,108.7,38.7,111,38.7z M106.2,42.1
			c-1.3,1.3-2,2.9-2,4.8c0,1.9,0.7,3.5,2,4.8c1.3,1.3,2.9,2,4.8,2c1.9,0,3.5-0.7,4.8-2c1.3-1.3,2-2.9,2-4.8c0-1.9-0.7-3.5-2-4.8
			c-1.3-1.3-2.9-2-4.8-2C109.1,40.1,107.5,40.8,106.2,42.1z"/>
		<path class="st1" d="M128,41.2c-1,0.1-1.9,0.8-2.8,1.8c-0.9,1.1-1.4,2.2-1.4,3.3v8.4h-1.4V40h1.4v3.2c0.6-1.5,1.7-2.6,3.5-3.3
			L128,41.2z"/>
		<path class="st1" d="M130.4,30.8h1.4v10c1.1-1.1,2.5-1.6,4.1-1.6c1.7,0,3.1,0.5,4.2,1.6c1.1,1.1,1.7,2.5,1.7,4.1v9.9h-1.4V45
			c0-1.3-0.5-2.3-1.4-3.2c-0.9-0.9-2-1.3-3.2-1.3c-1.2,0-2.3,0.4-3.2,1.3c-0.4,0.4-0.7,0.8-0.9,1.2v11.7h-1.4V30.8z"/>
		<path class="st1" d="M153.5,38.7c2.3,0,4.2,0.8,5.8,2.4c1.6,1.6,2.4,3.6,2.4,5.8c0,2.3-0.8,4.2-2.4,5.8c-1.6,1.6-3.5,2.4-5.8,2.4
			c-2.3,0-4.2-0.8-5.8-2.4c-1.6-1.6-2.4-3.5-2.4-5.8c0-2.3,0.8-4.2,2.4-5.8C149.3,39.5,151.3,38.7,153.5,38.7z M148.7,42.1
			c-1.3,1.3-2,2.9-2,4.8c0,1.9,0.7,3.5,2,4.8c1.3,1.3,2.9,2,4.8,2c1.9,0,3.5-0.7,4.8-2c1.3-1.3,2-2.9,2-4.8c0-1.9-0.7-3.5-2-4.8
			c-1.3-1.3-2.9-2-4.8-2C151.6,40.1,150,40.8,148.7,42.1z"/>
		<path class="st1" d="M173.2,38.7c2.3,0,4.2,0.8,5.8,2.4c1.6,1.6,2.4,3.6,2.4,5.8c0,2.3-0.8,4.2-2.4,5.8c-1.6,1.6-3.5,2.4-5.8,2.4
			c-2.3,0-4.2-0.8-5.8-2.4c-1.6-1.6-2.4-3.5-2.4-5.8c0-2.3,0.8-4.2,2.4-5.8C169,39.5,170.9,38.7,173.2,38.7z M168.3,42.1
			c-1.3,1.3-2,2.9-2,4.8c0,1.9,0.7,3.5,2,4.8c1.3,1.3,2.9,2,4.8,2c1.9,0,3.5-0.7,4.8-2c1.3-1.3,2-2.9,2-4.8c0-1.9-0.7-3.5-2-4.8
			c-1.3-1.3-2.9-2-4.8-2C171.3,40.1,169.7,40.8,168.3,42.1z"/>
		<path class="st1" d="M200.9,54.8h-1.4v-3c-0.3,0.4-0.5,0.7-0.8,1c-1.6,1.6-3.6,2.4-5.8,2.4c-2.3,0-4.2-0.8-5.8-2.4
			c-1.6-1.6-2.4-3.5-2.4-5.8c0-2.3,0.8-4.2,2.4-5.8c1.6-1.6,3.5-2.4,5.8-2.4c2.3,0,4.2,0.8,5.8,2.4c0.3,0.3,0.6,0.7,0.8,1V30.8h1.4
			V54.8z M199.5,48.3v-2.7c-0.2-1.3-0.9-2.5-1.9-3.5c-1.3-1.3-2.9-2-4.8-2c-1.9,0-3.5,0.7-4.8,2c-1.3,1.3-2,2.9-2,4.8
			c0,1.9,0.7,3.5,2,4.8c1.3,1.3,2.9,2,4.8,2c1.9,0,3.5-0.7,4.8-2C198.6,50.7,199.3,49.6,199.5,48.3z"/>
	</g>
	<g>
		<path class="st1" d="M79.8,79.8l-3.1-5.4h0.6l2.8,4.8l2.8-4.8h0.6l-3.1,5.4v3.7h-0.5V79.8z"/>
		<path class="st1" d="M86.6,77.4c0.9,0,1.6,0.3,2.2,0.9c0.6,0.6,0.9,1.3,0.9,2.2c0,0.9-0.3,1.6-0.9,2.2c-0.6,0.6-1.3,0.9-2.2,0.9
			c-0.9,0-1.6-0.3-2.2-0.9c-0.6-0.6-0.9-1.3-0.9-2.2c0-0.9,0.3-1.6,0.9-2.2C85,77.7,85.8,77.4,86.6,77.4z M84.8,78.7
			c-0.5,0.5-0.8,1.1-0.8,1.8c0,0.7,0.3,1.3,0.8,1.8c0.5,0.5,1.1,0.8,1.8,0.8c0.7,0,1.3-0.3,1.8-0.8c0.5-0.5,0.8-1.1,0.8-1.8
			c0-0.7-0.3-1.3-0.8-1.8C88,78.2,87.3,78,86.6,78C85.9,78,85.3,78.2,84.8,78.7z"/>
		<path class="st1" d="M93.3,83.6c-0.7,0-1.3-0.2-1.7-0.6c-0.4-0.4-0.6-0.9-0.6-1.6v-3.5h0.5v3.4c0,0.5,0.2,0.9,0.5,1.2
			c0.3,0.3,0.8,0.5,1.3,0.5c0.5,0,0.9-0.2,1.2-0.5c0.3-0.3,0.5-0.7,0.5-1.2v-3.4h0.5v3.5c0,0.6-0.2,1.2-0.6,1.6
			C94.5,83.4,94,83.6,93.3,83.6z"/>
		<path class="st1" d="M99,78.4c-0.4,0.1-0.7,0.3-1.1,0.7c-0.4,0.4-0.5,0.8-0.5,1.2v3.2h-0.5v-5.6h0.5v1.2c0.2-0.6,0.7-1,1.3-1.3
			L99,78.4z"/>
		<path class="st1" d="M104.2,74.4l6,8.5v-8.5h0.5v9.1H110l-5.9-8.3v8.3h-0.5v-9.1H104.2z"/>
		<path class="st1" d="M112.6,80.2c0,0.1,0,0.2,0,0.3c0,0.7,0.3,1.3,0.8,1.8c0.5,0.5,1.1,0.8,1.8,0.8c0.7,0,1.3-0.3,1.8-0.8
			c0.1-0.1,0.2-0.2,0.2-0.3l0.5,0.2c-0.1,0.1-0.2,0.3-0.4,0.5c-0.6,0.6-1.3,0.9-2.2,0.9c-0.9,0-1.6-0.3-2.2-0.9
			c-0.6-0.6-0.9-1.3-0.9-2.2c0-0.9,0.3-1.6,0.9-2.2c0.6-0.6,1.3-0.9,2.2-0.9c0.9,0,1.6,0.3,2.2,0.9c0.5,0.5,0.8,1.2,0.8,1.9H112.6z
			 M112.7,79.7h4.9c-0.1-0.4-0.3-0.7-0.6-1c-0.5-0.5-1.1-0.8-1.8-0.8c-0.7,0-1.3,0.3-1.8,0.8C113,79,112.8,79.4,112.7,79.7z"/>
		<path class="st1" d="M120.1,76.1c0.1,0.1,0.2,0.2,0.2,0.4c0,0.1-0.1,0.3-0.2,0.4c-0.1,0.1-0.2,0.1-0.4,0.1c-0.1,0-0.3,0-0.4-0.1
			c-0.1-0.1-0.2-0.2-0.2-0.4c0-0.1,0.1-0.3,0.2-0.4c0.1-0.1,0.2-0.1,0.4-0.1C119.9,75.9,120,76,120.1,76.1z M120,77.9v5.6h-0.5v-5.6
			H120z"/>
		<path class="st1" d="M127,82.4c-0.1,0.1-0.2,0.2-0.3,0.3c-0.6,0.6-1.3,0.9-2.2,0.9c-0.9,0-1.6-0.3-2.2-0.9
			c-0.6-0.6-0.9-1.3-0.9-2.2c0-0.9,0.3-1.6,0.9-2.2c0.6-0.6,1.3-0.9,2.2-0.9c0.9,0,1.6,0.3,2.2,0.9c0.1,0.1,0.2,0.2,0.3,0.4v-0.8
			h0.5v4.3c0,0.8-0.3,1.6-0.9,2.1c-0.6,0.6-1.3,0.9-2.2,0.9c-0.9,0-1.6-0.3-2.2-0.9c-0.1-0.1-0.2-0.3-0.3-0.4l0.5-0.2
			c0.1,0.1,0.1,0.1,0.2,0.2c0.5,0.5,1.1,0.8,1.8,0.8c0.7,0,1.3-0.3,1.8-0.8C126.7,83.5,126.9,83,127,82.4z M127,80
			c-0.1-0.5-0.3-0.9-0.7-1.3c-0.5-0.5-1.1-0.8-1.8-0.8c-0.7,0-1.3,0.3-1.8,0.8c-0.5,0.5-0.8,1.1-0.8,1.8c0,0.7,0.3,1.3,0.8,1.8
			c0.5,0.5,1.1,0.8,1.8,0.8c0.7,0,1.3-0.3,1.8-0.8c0.4-0.4,0.6-0.8,0.7-1.3V80z"/>
		<path class="st1" d="M128.8,74.4h0.5v3.8c0.4-0.4,0.9-0.6,1.6-0.6c0.7,0,1.2,0.2,1.6,0.6c0.4,0.4,0.6,0.9,0.6,1.6v3.7h-0.5v-3.7
			c0-0.5-0.2-0.9-0.5-1.2c-0.3-0.3-0.7-0.5-1.2-0.5c-0.5,0-0.9,0.2-1.2,0.5c-0.2,0.2-0.3,0.3-0.3,0.5v4.4h-0.5V74.4z"/>
		<path class="st1" d="M134.7,74.4h0.5v4.3c0.1-0.1,0.2-0.3,0.3-0.4c0.6-0.6,1.3-0.9,2.2-0.9c0.9,0,1.6,0.3,2.2,0.9s0.9,1.3,0.9,2.2
			c0,0.9-0.3,1.6-0.9,2.2s-1.3,0.9-2.2,0.9c-0.9,0-1.6-0.3-2.2-0.9c-0.1-0.1-0.2-0.2-0.3-0.4v1.1h-0.5V74.4z M135.2,80v1.1
			c0.1,0.5,0.3,0.9,0.7,1.3c0.5,0.5,1.1,0.8,1.8,0.8c0.7,0,1.3-0.3,1.8-0.8c0.5-0.5,0.8-1.1,0.8-1.8c0-0.7-0.3-1.3-0.8-1.8
			c-0.5-0.5-1.1-0.8-1.8-0.8c-0.7,0-1.3,0.3-1.8,0.8C135.5,79.1,135.3,79.5,135.2,80z"/>
		<path class="st1" d="M145.2,77.4c0.9,0,1.6,0.3,2.2,0.9c0.6,0.6,0.9,1.3,0.9,2.2c0,0.9-0.3,1.6-0.9,2.2c-0.6,0.6-1.3,0.9-2.2,0.9
			c-0.9,0-1.6-0.3-2.2-0.9s-0.9-1.3-0.9-2.2c0-0.9,0.3-1.6,0.9-2.2S144.3,77.4,145.2,77.4z M143.3,78.7c-0.5,0.5-0.8,1.1-0.8,1.8
			c0,0.7,0.3,1.3,0.8,1.8c0.5,0.5,1.1,0.8,1.8,0.8c0.7,0,1.3-0.3,1.8-0.8c0.5-0.5,0.8-1.1,0.8-1.8c0-0.7-0.3-1.3-0.8-1.8
			c-0.5-0.5-1.1-0.8-1.8-0.8C144.4,78,143.8,78.2,143.3,78.7z"/>
		<path class="st1" d="M151.6,78.4c-0.4,0.1-0.7,0.3-1.1,0.7c-0.4,0.4-0.5,0.8-0.5,1.2v3.2h-0.5v-5.6h0.5v1.2c0.2-0.6,0.7-1,1.3-1.3
			L151.6,78.4z"/>
		<path class="st1" d="M152.5,74.4h0.5v3.8c0.4-0.4,0.9-0.6,1.6-0.6c0.7,0,1.2,0.2,1.6,0.6c0.4,0.4,0.6,0.9,0.6,1.6v3.7h-0.5v-3.7
			c0-0.5-0.2-0.9-0.5-1.2c-0.3-0.3-0.7-0.5-1.2-0.5c-0.5,0-0.9,0.2-1.2,0.5c-0.2,0.2-0.3,0.3-0.3,0.5v4.4h-0.5V74.4z"/>
		<path class="st1" d="M161.3,77.4c0.9,0,1.6,0.3,2.2,0.9c0.6,0.6,0.9,1.3,0.9,2.2c0,0.9-0.3,1.6-0.9,2.2c-0.6,0.6-1.3,0.9-2.2,0.9
			c-0.9,0-1.6-0.3-2.2-0.9c-0.6-0.6-0.9-1.3-0.9-2.2c0-0.9,0.3-1.6,0.9-2.2C159.7,77.7,160.4,77.4,161.3,77.4z M159.5,78.7
			c-0.5,0.5-0.8,1.1-0.8,1.8c0,0.7,0.3,1.3,0.8,1.8c0.5,0.5,1.1,0.8,1.8,0.8c0.7,0,1.3-0.3,1.8-0.8c0.5-0.5,0.8-1.1,0.8-1.8
			c0-0.7-0.3-1.3-0.8-1.8c-0.5-0.5-1.1-0.8-1.8-0.8C160.6,78,160,78.2,159.5,78.7z"/>
		<path class="st1" d="M168.7,77.4c0.9,0,1.6,0.3,2.2,0.9c0.6,0.6,0.9,1.3,0.9,2.2c0,0.9-0.3,1.6-0.9,2.2c-0.6,0.6-1.3,0.9-2.2,0.9
			c-0.9,0-1.6-0.3-2.2-0.9c-0.6-0.6-0.9-1.3-0.9-2.2c0-0.9,0.3-1.6,0.9-2.2C167.1,77.7,167.9,77.4,168.7,77.4z M166.9,78.7
			c-0.5,0.5-0.8,1.1-0.8,1.8c0,0.7,0.3,1.3,0.8,1.8c0.5,0.5,1.1,0.8,1.8,0.8c0.7,0,1.3-0.3,1.8-0.8c0.5-0.5,0.8-1.1,0.8-1.8
			c0-0.7-0.3-1.3-0.8-1.8c-0.5-0.5-1.1-0.8-1.8-0.8C168,78,167.4,78.2,166.9,78.7z"/>
		<path class="st1" d="M179.2,83.5h-0.5v-1.1c-0.1,0.1-0.2,0.3-0.3,0.4c-0.6,0.6-1.3,0.9-2.2,0.9c-0.9,0-1.6-0.3-2.2-0.9
			c-0.6-0.6-0.9-1.3-0.9-2.2c0-0.9,0.3-1.6,0.9-2.2c0.6-0.6,1.3-0.9,2.2-0.9c0.9,0,1.6,0.3,2.2,0.9c0.1,0.1,0.2,0.2,0.3,0.4v-4.3
			h0.5V83.5z M178.7,81v-1c-0.1-0.5-0.3-0.9-0.7-1.3c-0.5-0.5-1.1-0.8-1.8-0.8c-0.7,0-1.3,0.3-1.8,0.8c-0.5,0.5-0.8,1.1-0.8,1.8
			c0,0.7,0.3,1.3,0.8,1.8c0.5,0.5,1.1,0.8,1.8,0.8c0.7,0,1.3-0.3,1.8-0.8C178.4,82,178.6,81.5,178.7,81z"/>
		<path class="st1" d="M184.3,83.5v-9.1h0.5V83h3.5v0.5H184.3z"/>
		<path class="st1" d="M189.4,80.2c0,0.1,0,0.2,0,0.3c0,0.7,0.3,1.3,0.8,1.8c0.5,0.5,1.1,0.8,1.8,0.8c0.7,0,1.3-0.3,1.8-0.8
			c0.1-0.1,0.2-0.2,0.2-0.3l0.5,0.2c-0.1,0.1-0.2,0.3-0.4,0.5c-0.6,0.6-1.3,0.9-2.2,0.9c-0.9,0-1.6-0.3-2.2-0.9
			c-0.6-0.6-0.9-1.3-0.9-2.2c0-0.9,0.3-1.6,0.9-2.2c0.6-0.6,1.3-0.9,2.2-0.9c0.9,0,1.6,0.3,2.2,0.9c0.5,0.5,0.8,1.2,0.8,1.9H189.4z
			 M189.5,79.7h4.9c-0.1-0.4-0.3-0.7-0.6-1c-0.5-0.5-1.1-0.8-1.8-0.8c-0.7,0-1.3,0.3-1.8,0.8C189.8,79,189.6,79.4,189.5,79.7z"/>
		<path class="st1" d="M196.6,79.2v4.3h-0.5v-5.6h0.5v0.4c0.5-0.5,1-0.7,1.6-0.7c0.7,0,1.2,0.2,1.6,0.6c0.4,0.4,0.6,0.9,0.6,1.6v3.7
			H200v-3.7c0-0.5-0.2-0.9-0.5-1.2c-0.3-0.3-0.7-0.5-1.2-0.5c-0.5,0-0.9,0.2-1.2,0.5C196.8,78.8,196.7,79,196.6,79.2z"/>
		<path class="st1" d="M208,83.5h-0.5v-1.1c-0.1,0.1-0.2,0.3-0.3,0.4c-0.6,0.6-1.3,0.9-2.2,0.9c-0.9,0-1.6-0.3-2.2-0.9
			c-0.6-0.6-0.9-1.3-0.9-2.2c0-0.9,0.3-1.6,0.9-2.2c0.6-0.6,1.3-0.9,2.2-0.9c0.9,0,1.6,0.3,2.2,0.9c0.1,0.1,0.2,0.2,0.3,0.4v-4.3
			h0.5V83.5z M207.5,81v-1c-0.1-0.5-0.3-0.9-0.7-1.3c-0.5-0.5-1.1-0.8-1.8-0.8c-0.7,0-1.3,0.3-1.8,0.8c-0.5,0.5-0.8,1.1-0.8,1.8
			c0,0.7,0.3,1.3,0.8,1.8c0.5,0.5,1.1,0.8,1.8,0.8c0.7,0,1.3-0.3,1.8-0.8C207.2,82,207.4,81.5,207.5,81z"/>
		<path class="st1" d="M209.8,80.2c0,0.1,0,0.2,0,0.3c0,0.7,0.3,1.3,0.8,1.8c0.5,0.5,1.1,0.8,1.8,0.8c0.7,0,1.3-0.3,1.8-0.8
			c0.1-0.1,0.2-0.2,0.2-0.3l0.5,0.2c-0.1,0.1-0.2,0.3-0.4,0.5c-0.6,0.6-1.3,0.9-2.2,0.9c-0.9,0-1.6-0.3-2.2-0.9
			c-0.6-0.6-0.9-1.3-0.9-2.2c0-0.9,0.3-1.6,0.9-2.2c0.6-0.6,1.3-0.9,2.2-0.9c0.9,0,1.6,0.3,2.2,0.9c0.5,0.5,0.8,1.2,0.8,1.9H209.8z
			 M209.9,79.7h4.9c-0.1-0.4-0.3-0.7-0.6-1c-0.5-0.5-1.1-0.8-1.8-0.8c-0.7,0-1.3,0.3-1.8,0.8C210.2,79,210,79.4,209.9,79.7z"/>
		<path class="st1" d="M218.5,78.4c-0.4,0.1-0.7,0.3-1.1,0.7c-0.4,0.4-0.5,0.8-0.5,1.2v3.2h-0.5v-5.6h0.5v1.2c0.2-0.6,0.7-1,1.3-1.3
			L218.5,78.4z"/>
	</g>
	<line class="st2" x1="72.3" y1="79.2" x2="8.7" y2="79.2"/>
	<line class="st2" x1="286.6" y1="79.2" x2="222.7" y2="79.2"/>
	<g>
		<path class="st1" d="M289.9,29.4c0.3,0,0.7,0.1,1,0.3c0.3,0.2,0.6,0.4,0.8,0.7c0.2,0.3,0.3,0.7,0.3,1c0,0.3-0.1,0.7-0.3,1
			s-0.4,0.6-0.7,0.7c-0.3,0.2-0.7,0.3-1,0.3c-0.4,0-0.7-0.1-1-0.3c-0.3-0.2-0.6-0.4-0.7-0.7c-0.2-0.3-0.3-0.7-0.3-1
			c0-0.4,0.1-0.7,0.3-1s0.4-0.6,0.8-0.7C289.2,29.5,289.5,29.4,289.9,29.4z M289.9,29.7c-0.3,0-0.6,0.1-0.8,0.2
			c-0.3,0.1-0.5,0.4-0.6,0.6c-0.2,0.3-0.2,0.6-0.2,0.8c0,0.3,0.1,0.6,0.2,0.8c0.1,0.3,0.4,0.5,0.6,0.6c0.3,0.1,0.5,0.2,0.8,0.2
			c0.3,0,0.6-0.1,0.8-0.2c0.3-0.1,0.5-0.4,0.6-0.6c0.1-0.3,0.2-0.5,0.2-0.8c0-0.3-0.1-0.6-0.2-0.8c-0.2-0.3-0.4-0.5-0.6-0.6
			C290.4,29.8,290.1,29.7,289.9,29.7z M289,32.5v-2.2h0.7c0.3,0,0.4,0,0.6,0.1c0.1,0,0.2,0.1,0.3,0.2c0.1,0.1,0.1,0.2,0.1,0.3
			c0,0.2-0.1,0.3-0.2,0.4c-0.1,0.1-0.3,0.2-0.5,0.2c0.1,0,0.1,0.1,0.2,0.1c0.1,0.1,0.2,0.2,0.3,0.4l0.3,0.4h-0.4l-0.2-0.3
			c-0.2-0.3-0.3-0.4-0.4-0.5c-0.1-0.1-0.2-0.1-0.3-0.1h-0.2v0.9H289z M289.3,31.3h0.4c0.2,0,0.3,0,0.4-0.1c0.1-0.1,0.1-0.1,0.1-0.2
			c0-0.1,0-0.1-0.1-0.2c0-0.1-0.1-0.1-0.1-0.1c-0.1,0-0.2,0-0.4,0h-0.4V31.3z"/>
	</g>
</g>
</svg>
